<?xml version="1.0" encoding="utf-8"?>
<!-- Generator: Adobe Illustrator 13.0.1, SVG Export Plug-In . SVG Version: 6.00 Build 14948)  -->
<!DOCTYPE svg PUBLIC "-//W3C//DTD SVG 1.1//EN" "http://www.w3.org/Graphics/SVG/1.1/DTD/svg11.dtd">
<svg version="1.1" id="Layer_1" xmlns="http://www.w3.org/2000/svg" xmlns:xlink="http://www.w3.org/1999/xlink" x="0px" y="0px"
	 width="800px" height="575px" viewBox="0 0 800 575" enable-background="new 0 0 800 575" xml:space="preserve">
<circle fill="#00FF00" stroke="#000000" stroke-width="2" cx="103.992" cy="71.016" r="25"/>
<circle fill="#FF0000" stroke="#000000" cx="292.349" cy="500.249" r="16.8"/>
<polygon fill="#FFFFFF" stroke="#000000" points="533.993,452.552 560.046,407.427 586.099,452.552 "/>
<circle fill="#FF0000" stroke="#000000" cx="548.794" cy="333.988" r="16.8"/>
<circle fill="#FF0000" stroke="#000000" cx="190.412" cy="112.816" r="16.8"/>
<rect x="632.257" y="71.016" fill="#00FF00" stroke="#000000" width="70" height="70"/>
<rect x="68.992" y="452.697" fill="#00FF00" stroke="#000000" width="70" height="70"/>
<rect x="313.499" y="228.889" fill="#00FF00" stroke="#000000" width="70" height="70"/>
<polygon fill="#FFFFFF" stroke="#000000" points="588.099,456.552 614.151,411.427 640.204,456.552 "/>
<polygon fill="#FFFFFF" stroke="#000000" points="641.204,452.552 667.257,407.427 693.31,452.552 "/>
<polygon fill="#FFFFFF" stroke="#000000" points="695.31,450.552 721.362,405.427 747.415,450.552 "/>
<polygon fill="#FFFFFF" stroke="#000000" points="558.046,380.18 531.993,425.305 505.94,380.18 "/>
<polygon fill="#FFFFFF" stroke="#000000" points="613.151,389.991 587.099,435.116 561.046,389.991 "/>
<polygon fill="#FFFFFF" stroke="#000000" points="666.257,394.447 640.204,439.572 614.151,394.447 "/>
<polygon fill="#FFFFFF" stroke="#000000" points="722.936,394.447 696.883,439.572 670.83,394.447 "/>
<polygon fill="#FFFFFF" stroke="#000000" points="505.94,491.686 479.887,446.563 531.993,446.563 "/>
<polygon fill="#FFFFFF" stroke="#000000" points="472.709,442.572 498.762,487.697 446.656,487.695 "/>
<polygon fill="#FFFFFF" stroke="#000000" points="499.762,394.447 525.814,439.572 473.709,439.572 "/>
<polygon fill="#FFFFFF" stroke="#000000" points="154.907,370.904 111.545,342.014 158.246,318.906 "/>
<polygon fill="#FFFFFF" stroke="#000000" points="159.872,315.995 114.748,289.941 159.872,263.889 "/>
<polygon fill="#FFFFFF" stroke="#000000" points="163.852,258.942 118.727,232.89 163.853,206.837 "/>
<polygon fill="#FFFFFF" stroke="#000000" points="141.29,210.605 96.164,184.553 141.29,158.5 "/>
<polygon fill="#FFFFFF" stroke="#000000" points="93.174,343.459 138.299,369.512 93.174,395.564 "/>
<polygon fill="#FFFFFF" stroke="#000000" points="93.174,289.354 138.299,315.406 93.174,341.459 "/>
<polygon fill="#FFFFFF" stroke="#000000" points="103.992,239.248 149.117,265.3 103.992,291.354 "/>
<polygon fill="#FFFFFF" stroke="#000000" points="90.185,184.553 135.31,210.605 90.185,236.658 "/>
<polygon fill="#FFFFFF" stroke="#000000" points="86.624,232.889 41.499,258.943 41.499,206.836 "/>
<polygon fill="#FFFFFF" stroke="#000000" points="41.499,272.837 86.624,246.784 86.624,298.889 "/>
<polygon fill="#FFFFFF" stroke="#000000" points="235.537,418.617 190.412,444.67 190.412,392.564 "/>
<polygon fill="#FFFFFF" stroke="#000000" points="186.412,395.564 141.288,421.617 141.288,369.512 "/>
<polygon fill="#FFFFFF" stroke="#000000" points="185.422,453.848 230.547,427.795 230.547,479.9 "/>
<polygon fill="#FFFFFF" stroke="#000000" points="137.299,428.795 182.424,402.742 182.422,454.848 "/>
<polygon fill="#FFFFFF" stroke="#000000" points="92.174,400.742 137.299,374.689 137.299,426.795 "/>
<polygon fill="#FFFFFF" stroke="#000000" points="528.877,63.135 554.931,108.26 502.824,108.26 "/>
<polygon fill="#FFFFFF" stroke="#000000" points="568.108,108.26 542.056,63.135 594.161,63.135 "/>
<g>
	<line fill="none" stroke="#D9AB00" x1="24.5" y1="26" x2="24.5" y2="551"/>
	<line fill="none" stroke="#D9AB00" x1="774.5" y1="26" x2="774.5" y2="551"/>
	<line fill="none" stroke="#D9AB00" x1="24.5" y1="551" x2="774.5" y2="551"/>
	<line fill="none" stroke="#D9AB00" x1="24.5" y1="26" x2="774.5" y2="26"/>
</g>
</svg>
