<?xml version="1.0" encoding="utf-8"?>
<!-- Generator: Adobe Illustrator 13.0.1, SVG Export Plug-In . SVG Version: 6.00 Build 14948)  -->
<!DOCTYPE svg PUBLIC "-//W3C//DTD SVG 1.1//EN" "http://www.w3.org/Graphics/SVG/1.1/DTD/svg11.dtd">
<svg version="1.1" id="Layer_1" xmlns="http://www.w3.org/2000/svg" xmlns:xlink="http://www.w3.org/1999/xlink" x="0px" y="0px"
	 width="800px" height="575px" viewBox="0 0 800 575" enable-background="new 0 0 800 575" xml:space="preserve">
<circle fill="#00FF00" stroke="#000000" stroke-width="2" cx="78.992" cy="96.016" r="25"/>
<circle fill="#FF0000" stroke="#000000" cx="292.349" cy="500.249" r="16.8"/>
<polygon fill="#FFFFFF" stroke="#000000" points="533.993,450.552 560.046,405.427 586.099,450.552 "/>
<circle fill="#FF0000" stroke="#000000" cx="541.527" cy="350.788" r="16.8"/>
<circle fill="#FF0000" stroke="#000000" cx="121.499" cy="150.097" r="16.8"/>
<rect x="600.83" y="60.145" fill="#00FF00" stroke="#000000" width="70" height="70"/>
<rect x="41.499" y="471.398" fill="#00FF00" stroke="#000000" width="70" height="70"/>
<rect x="153.499" y="181.398" fill="#00FF00" stroke="#000000" width="70" height="70"/>
<polygon fill="#FFFFFF" stroke="#000000" points="586.099,450.552 612.151,405.427 638.204,450.552 "/>
<polygon fill="#FFFFFF" stroke="#000000" points="638.204,450.552 664.257,405.427 690.31,450.552 "/>
<polygon fill="#FFFFFF" stroke="#000000" points="690.31,450.552 716.362,405.427 742.415,450.552 "/>
<polygon fill="#FFFFFF" stroke="#000000" points="560.046,399.447 533.993,444.572 507.94,399.447 "/>
<polygon fill="#FFFFFF" stroke="#000000" points="612.151,399.447 586.099,444.572 560.046,399.447 "/>
<polygon fill="#FFFFFF" stroke="#000000" points="664.257,399.447 638.204,444.572 612.151,399.447 "/>
<polygon fill="#FFFFFF" stroke="#000000" points="716.362,399.447 690.31,444.572 664.257,399.447 "/>
<polygon fill="#FFFFFF" stroke="#000000" points="666.847,399.447 640.793,354.322 692.899,354.322 "/>
<polygon fill="#FFFFFF" stroke="#000000" points="692.899,354.322 666.846,309.197 718.952,309.197 "/>
<polygon fill="#FFFFFF" stroke="#000000" points="718.952,309.197 692.898,264.073 745.005,264.073 "/>
<polygon fill="#FFFFFF" stroke="#000000" points="745.005,264.073 718.951,218.948 771.058,218.948 "/>
<polygon fill="#FFFFFF" stroke="#000000" points="635.615,351.332 661.668,396.457 609.563,396.457 "/>
<polygon fill="#FFFFFF" stroke="#000000" points="661.668,306.207 687.721,351.332 635.615,351.332 "/>
<polygon fill="#FFFFFF" stroke="#000000" points="687.721,261.083 713.773,306.208 661.668,306.207 "/>
<polygon fill="#FFFFFF" stroke="#000000" points="713.773,215.958 739.826,261.083 687.721,261.083 "/>
<polygon fill="#FFFFFF" stroke="#000000" points="481.888,537.811 455.834,492.686 507.94,492.686 "/>
<polygon fill="#FFFFFF" stroke="#000000" points="507.94,492.686 481.887,447.563 533.993,447.563 "/>
<polygon fill="#FFFFFF" stroke="#000000" points="450.656,489.695 476.709,534.82 424.604,534.82 "/>
<polygon fill="#FFFFFF" stroke="#000000" points="476.709,444.572 502.762,489.697 450.656,489.695 "/>
<polygon fill="#FFFFFF" stroke="#000000" points="502.762,399.447 528.814,444.572 476.709,444.572 "/>
<polygon fill="#FFFFFF" stroke="#000000" points="144.278,369.512 99.154,343.459 144.278,317.406 "/>
<polygon fill="#FFFFFF" stroke="#000000" points="144.278,317.406 99.154,291.354 144.278,265.3 "/>
<polygon fill="#FFFFFF" stroke="#000000" points="144.278,265.3 99.154,239.248 144.279,213.195 "/>
<polygon fill="#FFFFFF" stroke="#000000" points="144.279,213.195 99.154,187.142 144.279,161.089 "/>
<polygon fill="#FFFFFF" stroke="#000000" points="93.174,343.459 138.299,369.512 93.174,395.564 "/>
<polygon fill="#FFFFFF" stroke="#000000" points="93.174,291.354 138.299,317.406 93.174,343.459 "/>
<polygon fill="#FFFFFF" stroke="#000000" points="93.174,239.248 138.299,265.3 93.174,291.354 "/>
<polygon fill="#FFFFFF" stroke="#000000" points="93.174,187.142 138.299,213.195 93.174,239.248 "/>
<polygon fill="#FFFFFF" stroke="#000000" points="93.174,236.658 48.049,262.711 48.049,210.605 "/>
<polygon fill="#FFFFFF" stroke="#000000" points="45.059,267.889 90.184,241.836 90.184,293.941 "/>
<polygon fill="#FFFFFF" stroke="#000000" points="231.537,421.617 186.412,447.67 186.412,395.564 "/>
<polygon fill="#FFFFFF" stroke="#000000" points="186.412,395.564 141.288,421.617 141.288,369.512 "/>
<polygon fill="#FFFFFF" stroke="#000000" points="183.422,452.848 228.547,426.795 228.547,478.9 "/>
<polygon fill="#FFFFFF" stroke="#000000" points="138.299,426.795 183.424,400.742 183.422,452.848 "/>
<polygon fill="#FFFFFF" stroke="#000000" points="93.174,400.742 138.299,374.689 138.299,426.795 "/>
<polygon fill="#FFFFFF" stroke="#000000" points="484.771,147.403 458.719,192.528 432.666,147.403 "/>
<polygon fill="#FFFFFF" stroke="#000000" points="432.666,147.403 406.613,192.528 380.561,147.403 "/>
<polygon fill="#FFFFFF" stroke="#000000" points="380.561,147.403 354.508,192.528 328.455,147.403 "/>
<polygon fill="#FFFFFF" stroke="#000000" points="344.454,147.802 318.401,192.927 292.348,147.802 "/>
<polygon fill="#FFFFFF" stroke="#000000" points="458.719,198.508 484.771,153.383 510.824,198.508 "/>
<polygon fill="#FFFFFF" stroke="#000000" points="406.613,198.508 432.666,153.383 458.719,198.508 "/>
<polygon fill="#FFFFFF" stroke="#000000" points="354.508,198.508 380.561,153.383 406.613,198.508 "/>
<polygon fill="#FFFFFF" stroke="#000000" points="302.402,198.508 328.455,153.383 354.508,198.508 "/>
<polygon fill="#FFFFFF" stroke="#000000" points="351.918,198.508 377.972,243.633 325.865,243.633 "/>
<polygon fill="#FFFFFF" stroke="#000000" points="383.149,246.623 357.097,201.498 409.202,201.498 "/>
<polygon fill="#FFFFFF" stroke="#000000" points="536.877,60.145 562.931,105.27 510.824,105.27 "/>
<polygon fill="#FFFFFF" stroke="#000000" points="510.824,105.27 536.878,150.394 484.771,150.394 "/>
<polygon fill="#FFFFFF" stroke="#000000" points="568.108,108.26 542.056,63.135 594.161,63.135 "/>
<polygon fill="#FFFFFF" stroke="#000000" points="542.056,153.383 516.003,108.258 568.108,108.26 "/>
<polygon fill="#FFFFFF" stroke="#000000" points="516.003,198.508 489.95,153.383 542.056,153.383 "/>
</svg>
