<?xml version="1.0" encoding="utf-8"?>
<!-- Generator: Adobe Illustrator 13.0.1, SVG Export Plug-In . SVG Version: 6.00 Build 14948)  -->
<!DOCTYPE svg PUBLIC "-//W3C//DTD SVG 1.1//EN" "http://www.w3.org/Graphics/SVG/1.1/DTD/svg11.dtd">
<svg version="1.1" id="Layer_1" xmlns="http://www.w3.org/2000/svg" xmlns:xlink="http://www.w3.org/1999/xlink" x="0px" y="0px"
	 width="800px" height="575px" viewBox="0 0 800 575" enable-background="new 0 0 800 575" xml:space="preserve">
<circle fill="#00FF00" stroke="#000000" cx="86.459" cy="510.016" r="25"/>
<rect x="270.97" y="24.516" fill="#00FF00" stroke="#000000" width="72.725" height="72.725"/>
<g>
	<line stroke="#FFFFFF" x1="24.5" y1="25" x2="24.5" y2="550"/>
	<line stroke="#FFFFFF" x1="774.5" y1="25" x2="774.5" y2="550"/>
	<line stroke="#FFFFFF" x1="24.5" y1="550" x2="774.5" y2="550"/>
	<line stroke="#FFFFFF" x1="24.5" y1="25" x2="774.5" y2="25"/>
</g>
<polygon fill="none" stroke="#1FFF8A" points="624.72,541.409 591.284,541.409 574.568,512.454 591.284,483.501 624.72,483.501 
	641.435,512.454 624.72,541.409 "/>
<polygon fill="none" stroke="#1FFF8A" points="79.805,92.984 46.371,92.984 29.655,64.028 46.371,35.071 79.805,35.071 
	96.521,64.028 79.805,92.984 "/>
<polygon fill="none" stroke="#1FFF8A" points="79.804,440.115 46.372,440.115 29.654,411.162 46.372,382.208 79.804,382.208 
	96.521,411.162 79.804,440.115 "/>
<polygon fill="none" stroke="#1FFF8A" points="79.806,232.247 46.372,232.247 29.655,203.29 46.372,174.333 79.806,174.333 
	96.523,203.29 79.806,232.247 "/>
<polygon fill="none" stroke="#1FFF8A" points="79.806,162.953 46.371,162.953 29.655,133.998 46.371,105.043 79.806,105.043 
	96.522,133.998 79.806,162.953 "/>
<polygon fill="none" stroke="#1FFF8A" points="140.581,127.268 107.147,127.268 90.431,98.312 107.147,69.357 140.581,69.357 
	157.298,98.312 140.581,127.268 "/>
<polygon fill="none" stroke="#1FFF8A" points="140.58,474.401 107.15,474.401 90.434,445.445 107.147,416.491 140.58,416.491 
	157.298,445.447 140.58,474.401 "/>
<polygon fill="none" stroke="#1FFF8A" points="140.582,335.818 107.147,335.818 90.431,306.863 107.147,277.908 140.582,277.908 
	157.298,306.863 140.582,335.818 "/>
<polygon fill="none" stroke="#1FFF8A" points="200.838,92.464 167.404,92.464 150.688,63.507 167.404,34.553 200.836,34.553 
	217.556,63.512 200.838,92.464 "/>
<polygon fill="none" stroke="#1FFF8A" points="200.841,370.306 167.404,370.306 150.687,341.351 167.404,312.396 200.841,312.396 
	217.558,341.351 200.841,370.306 "/>
<polygon fill="none" stroke="#1FFF8A" points="200.84,231.725 167.407,231.725 150.688,202.77 167.407,173.814 200.84,173.814 
	217.557,202.77 200.84,231.725 "/>
<polygon fill="none" stroke="#1FFF8A" points="261.613,473.882 228.183,473.882 211.465,444.926 228.183,415.969 261.613,415.969 
	278.332,444.926 261.613,473.882 "/>
<polygon fill="none" stroke="#1FFF8A" points="261.613,266.01 228.186,266.01 211.469,237.055 228.186,208.098 261.613,208.098 
	278.331,237.055 261.613,266.01 "/>
<polygon fill="none" stroke="#1FFF8A" points="261.614,196.719 228.183,196.719 211.465,167.764 228.183,138.809 261.614,138.809 
	278.336,167.764 261.614,196.719 "/>
<polygon fill="none" stroke="#1FFF8A" points="321.603,161.05 288.168,161.05 271.45,132.096 288.168,103.141 321.603,103.141 
	338.32,132.096 321.603,161.05 "/>
<polygon fill="none" stroke="#1FFF8A" points="321.601,508.188 288.167,508.188 271.452,479.231 288.167,450.271 321.601,450.271 
	338.318,479.231 321.601,508.188 "/>
<polygon fill="none" stroke="#1FFF8A" points="321.598,369.603 288.17,369.603 271.452,340.647 288.17,311.692 321.598,311.692 
	338.315,340.647 321.598,369.603 "/>
<polygon fill="none" stroke="#1FFF8A" points="382.379,542.467 348.943,542.467 332.228,513.515 348.943,484.56 382.379,484.56 
	399.097,513.515 382.379,542.467 "/>
<polygon fill="none" stroke="#1FFF8A" points="382.377,334.6 348.943,334.6 332.228,305.642 348.943,276.685 382.377,276.685 
	399.095,305.642 382.377,334.6 "/>
<polygon fill="none" stroke="#1FFF8A" points="382.379,265.305 348.943,265.305 332.229,236.351 348.945,207.397 382.377,207.397 
	399.094,236.351 382.379,265.305 "/>
<polygon fill="none" stroke="#1FFF8A" points="442.634,438.374 409.2,438.374 392.484,409.418 409.2,380.462 442.634,380.462 
	459.354,409.418 442.634,438.374 "/>
<polygon fill="none" stroke="#1FFF8A" points="442.638,230.501 409.201,230.501 392.484,201.546 409.201,172.592 442.638,172.592 
	459.354,201.546 442.638,230.501 "/>
<polygon fill="none" stroke="#1FFF8A" points="503.41,472.66 469.98,472.66 453.264,443.704 469.98,414.747 503.41,414.747 
	520.129,443.704 503.41,472.66 "/>
<polygon fill="none" stroke="#1FFF8A" points="503.411,334.077 469.979,334.077 453.264,305.121 469.979,276.167 503.411,276.167 
	520.128,305.121 503.411,334.077 "/>
<polygon fill="none" stroke="#1FFF8A" points="563.943,159.991 530.507,159.991 513.791,131.038 530.507,102.084 563.943,102.084 
	580.659,131.038 563.943,159.991 "/>
<polygon fill="none" stroke="#1FFF8A" points="563.943,437.836 530.507,437.836 513.791,408.88 530.507,379.926 563.943,379.926 
	580.659,408.88 563.943,437.836 "/>
<polygon fill="none" stroke="#1FFF8A" points="563.943,229.961 530.507,229.961 513.791,201.01 530.507,172.056 563.943,172.056 
	580.659,201.01 563.943,229.961 "/>
<polygon fill="none" stroke="#1FFF8A" points="624.72,194.278 591.285,194.278 574.567,165.323 591.285,136.367 624.72,136.367 
	641.436,165.323 624.72,194.278 "/>
<polygon fill="none" stroke="#1FFF8A" points="624.72,402.83 591.285,402.83 574.567,373.875 591.285,344.92 624.72,344.92 
	641.436,373.875 624.72,402.83 "/>
<polygon fill="none" stroke="#1FFF8A" points="624.72,264.248 591.285,264.248 574.567,235.293 591.285,206.337 624.72,206.337 
	641.436,235.293 624.72,264.248 "/>
<polygon fill="none" stroke="#1FFF8A" points="684.977,506.607 651.543,506.607 634.825,477.653 651.543,448.694 684.977,448.694 
	701.694,477.653 684.977,506.607 "/>
<polygon fill="none" stroke="#1FFF8A" points="684.977,298.738 651.543,298.738 634.825,269.781 651.543,240.825 684.977,240.825 
	701.694,269.781 684.977,298.738 "/>
<polygon fill="none" stroke="#1FFF8A" points="684.977,229.447 651.543,229.447 634.825,200.488 651.543,171.533 684.977,171.533 
	701.694,200.488 684.977,229.447 "/>
<polygon fill="none" stroke="#1FFF8A" points="745.753,540.893 712.318,540.893 695.602,511.938 712.318,482.981 745.753,482.981 
	762.472,511.938 745.753,540.893 "/>
<polygon fill="none" stroke="#1FFF8A" points="745.753,471.602 712.318,471.602 695.602,442.645 712.318,413.692 745.753,413.692 
	762.472,442.645 745.753,471.602 "/>
<polygon fill="none" stroke="#1FFF8A" points="745.753,402.309 712.318,402.309 695.602,373.355 712.318,344.399 745.753,344.399 
	762.472,373.355 745.753,402.309 "/>
<polygon fill="none" stroke="#1FFF8A" points="442.638,90.765 409.204,90.765 392.484,61.81 409.201,32.855 442.638,32.855 
	459.354,61.812 442.638,90.765 "/>
<polygon fill="none" stroke="#1FFF8A" points="684.977,89.71 651.543,89.71 634.825,60.753 651.543,31.796 684.977,31.796 
	701.694,60.753 684.977,89.71 "/>
<circle fill="#FF0000" stroke="#000000" cx="423.994" cy="344.409" r="16.8"/>
<circle fill="#FF0000" stroke="#000000" cx="95.014" cy="254.095" r="16.8"/>
<rect x="704.757" y="97.849" fill="#00FF00" stroke="#000000" width="70" height="70"/>
<circle fill="#FF0000" stroke="#000000" cx="305.328" cy="239.409" r="16.8"/>
</svg>
