<?xml version="1.0" encoding="utf-8"?>
<!-- Generator: Adobe Illustrator 13.0.1, SVG Export Plug-In . SVG Version: 6.00 Build 14948)  -->
<!DOCTYPE svg PUBLIC "-//W3C//DTD SVG 1.1//EN" "http://www.w3.org/Graphics/SVG/1.1/DTD/svg11.dtd">
<svg version="1.1" id="Layer_1" xmlns="http://www.w3.org/2000/svg" xmlns:xlink="http://www.w3.org/1999/xlink" x="0px" y="0px"
	 width="800px" height="575px" viewBox="0 0 800 575" enable-background="new 0 0 800 575" xml:space="preserve">
<circle fill="#00FF00" stroke="#000000" cx="86.459" cy="510.016" r="25"/>
<rect x="270.757" y="26.516" fill="#00FF00" stroke="#000000" width="70" height="70"/>
<g>
	<line stroke="#FFFFFF" x1="24.5" y1="26" x2="24.5" y2="551"/>
	<line stroke="#FFFFFF" x1="774.5" y1="26" x2="774.5" y2="551"/>
	<line stroke="#FFFFFF" x1="24.5" y1="551" x2="774.5" y2="551"/>
	<line stroke="#FFFFFF" x1="24.5" y1="26" x2="774.5" y2="26"/>
</g>
<polygon fill="none" stroke="#1FFF8A" points="613.478,530.784 576.848,530.784 558.536,499.063 576.848,467.345 613.478,467.345 
	631.789,499.063 613.478,530.784 "/>
<polygon fill="none" stroke="#1FFF8A" points="88.978,99.157 52.348,99.157 34.036,67.436 52.348,35.714 88.978,35.714 
	107.291,67.436 88.978,99.157 "/>
<polygon fill="none" stroke="#1FFF8A" points="88.976,433.283 52.349,433.283 34.035,401.564 52.349,369.846 88.976,369.846 
	107.29,401.564 88.976,433.283 "/>
<polygon fill="none" stroke="#1FFF8A" points="88.977,233.202 52.35,233.202 34.036,201.48 52.35,169.758 88.977,169.758 
	107.291,201.48 88.977,233.202 "/>
<polygon fill="none" stroke="#1FFF8A" points="88.978,166.504 52.349,166.504 34.036,134.785 52.349,103.063 88.978,103.063 
	107.29,134.785 88.978,166.504 "/>
<polygon fill="none" stroke="#1FFF8A" points="147.476,132.157 110.849,132.157 92.535,100.435 110.849,68.715 147.476,68.715 
	165.789,100.435 147.476,132.157 "/>
<polygon fill="none" stroke="#1FFF8A" points="147.476,466.285 110.849,466.285 92.536,434.565 110.849,402.845 147.476,402.845 
	165.791,434.565 147.476,466.285 "/>
<polygon fill="none" stroke="#1FFF8A" points="147.477,332.895 110.849,332.895 92.536,301.174 110.849,269.453 147.477,269.453 
	165.789,301.174 147.477,332.895 "/>
<polygon fill="none" stroke="#1FFF8A" points="205.476,98.656 168.848,98.656 150.535,66.935 168.848,35.215 205.474,35.215 
	223.789,66.937 205.476,98.656 "/>
<polygon fill="none" stroke="#1FFF8A" points="205.478,366.09 168.848,366.09 150.534,334.369 168.848,302.649 205.478,302.649 
	223.792,334.369 205.478,366.09 "/>
<polygon fill="none" stroke="#1FFF8A" points="205.477,232.701 168.85,232.701 150.535,200.979 168.85,169.257 205.477,169.257 
	223.792,200.979 205.477,232.701 "/>
<polygon fill="none" stroke="#1FFF8A" points="263.974,465.784 227.349,465.784 209.035,434.063 227.349,402.343 263.974,402.343 
	282.29,434.063 263.974,465.784 "/>
<polygon fill="none" stroke="#1FFF8A" points="263.976,265.701 227.351,265.701 209.037,233.98 227.351,202.259 263.976,202.259 
	282.289,233.98 263.976,265.701 "/>
<polygon fill="none" stroke="#1FFF8A" points="263.974,199.005 227.35,199.005 209.035,167.285 227.35,135.564 263.974,135.564 
	282.291,167.285 263.974,199.005 "/>
<polygon fill="none" stroke="#1FFF8A" points="321.715,164.671 285.087,164.671 266.773,132.953 285.087,101.233 321.715,101.233 
	340.029,132.953 321.715,164.671 "/>
<polygon fill="none" stroke="#1FFF8A" points="321.714,498.804 285.086,498.804 266.774,467.083 285.086,435.359 321.714,435.359 
	340.028,467.083 321.714,498.804 "/>
<polygon fill="none" stroke="#1FFF8A" points="321.713,365.411 285.088,365.411 266.773,333.692 285.088,301.972 321.713,301.972 
	340.027,333.692 321.713,365.411 "/>
<polygon fill="none" stroke="#1FFF8A" points="380.217,531.801 343.585,531.801 325.273,500.082 343.585,468.362 380.217,468.362 
	398.528,500.082 380.217,531.801 "/>
<polygon fill="none" stroke="#1FFF8A" points="380.214,331.72 343.587,331.72 325.272,299.997 343.587,268.275 380.214,268.275 
	398.528,299.997 380.214,331.72 "/>
<polygon fill="none" stroke="#1FFF8A" points="380.214,265.022 343.587,265.022 325.274,233.301 343.587,201.583 380.214,201.583 
	398.526,233.301 380.214,265.022 "/>
<polygon fill="none" stroke="#1FFF8A" points="438.214,431.607 401.586,431.607 383.273,399.887 401.586,368.167 438.214,368.167 
	456.53,399.887 438.214,431.607 "/>
<polygon fill="none" stroke="#1FFF8A" points="438.216,298.219 401.587,298.219 383.273,266.498 401.587,234.776 438.216,234.776 
	456.529,266.498 438.216,298.219 "/>
<polygon fill="none" stroke="#1FFF8A" points="438.216,231.522 401.587,231.522 383.273,199.801 401.587,168.082 438.216,168.082 
	456.529,199.801 438.216,231.522 "/>
<polygon fill="none" stroke="#1FFF8A" points="496.712,464.607 460.088,464.607 441.775,432.888 460.088,401.167 496.712,401.167 
	515.027,432.888 496.712,464.607 "/>
<polygon fill="none" stroke="#1FFF8A" points="496.715,331.219 460.085,331.219 441.775,299.496 460.085,267.776 496.715,267.776 
	515.026,299.496 496.715,331.219 "/>
<polygon fill="none" stroke="#1FFF8A" points="554.978,163.654 518.348,163.654 500.036,131.935 518.348,100.215 554.978,100.215 
	573.289,131.935 554.978,163.654 "/>
<polygon fill="none" stroke="#1FFF8A" points="554.978,431.09 518.348,431.09 500.036,399.369 518.348,367.649 554.978,367.649 
	573.289,399.369 554.978,431.09 "/>
<polygon fill="none" stroke="#1FFF8A" points="554.978,231.003 518.348,231.003 500.036,199.284 518.348,167.566 554.978,167.566 
	573.289,199.284 554.978,231.003 "/>
<polygon fill="none" stroke="#1FFF8A" points="613.478,196.656 576.849,196.656 558.535,164.935 576.849,133.215 613.478,133.215 
	631.79,164.935 613.478,196.656 "/>
<polygon fill="none" stroke="#1FFF8A" points="613.478,397.395 576.849,397.395 558.535,365.676 576.849,333.954 613.478,333.954 
	631.79,365.676 613.478,397.395 "/>
<polygon fill="none" stroke="#1FFF8A" points="613.478,330.701 576.849,330.701 558.533,298.979 576.849,267.259 613.478,267.259 
	631.792,298.979 613.478,330.701 "/>
<polygon fill="none" stroke="#1FFF8A" points="613.478,264.003 576.849,264.003 558.535,232.284 576.849,200.565 613.478,200.565 
	631.79,232.284 613.478,264.003 "/>
<polygon fill="none" stroke="#1FFF8A" points="671.477,497.286 634.851,497.286 616.537,465.564 634.851,433.842 671.477,433.842 
	689.789,465.564 671.477,497.286 "/>
<polygon fill="none" stroke="#1FFF8A" points="671.477,297.202 634.851,297.202 616.537,265.48 634.851,233.758 671.477,233.758 
	689.789,265.48 671.477,297.202 "/>
<polygon fill="none" stroke="#1FFF8A" points="671.477,230.506 634.851,230.506 616.537,198.784 634.851,167.063 671.477,167.063 
	689.789,198.784 671.477,230.506 "/>
<polygon fill="none" stroke="#1FFF8A" points="729.976,530.285 693.349,530.285 675.036,498.565 693.349,466.844 729.976,466.844 
	748.29,498.565 729.976,530.285 "/>
<polygon fill="none" stroke="#1FFF8A" points="729.976,463.591 693.349,463.591 675.036,431.869 693.349,400.149 729.976,400.149 
	748.29,431.869 729.976,463.591 "/>
<polygon fill="none" stroke="#1FFF8A" points="729.976,396.895 693.349,396.895 675.036,365.175 693.349,333.453 729.976,333.453 
	748.29,365.175 729.976,396.895 "/>
<polygon fill="none" stroke="#1FFF8A" points="438.216,97.021 401.587,97.021 383.273,65.302 401.587,33.581 438.216,33.581 
	456.529,65.302 438.216,97.021 "/>
<polygon fill="none" stroke="#1FFF8A" points="671.477,96.006 634.851,96.006 616.537,64.284 634.851,32.562 671.477,32.562 
	689.789,64.284 671.477,96.006 "/>
<circle fill="#FF0000" stroke="#000000" cx="537.328" cy="337.076" r="16.8"/>
<circle fill="#FF0000" stroke="#000000" cx="710.272" cy="232.815" r="16.8"/>
<circle fill="#FF0000" stroke="#000000" cx="69.328" cy="271.076" r="16.8"/>
<rect x="441.757" y="479.516" fill="#00FF00" stroke="#000000" width="70" height="70"/>
<circle fill="#FF0000" stroke="#000000" cx="191.328" cy="400.076" r="16.8"/>
</svg>
