<?xml version="1.0" encoding="utf-8"?>
<!-- Generator: Adobe Illustrator 13.0.1, SVG Export Plug-In . SVG Version: 6.00 Build 14948)  -->
<!DOCTYPE svg PUBLIC "-//W3C//DTD SVG 1.1//EN" "http://www.w3.org/Graphics/SVG/1.1/DTD/svg11.dtd">
<svg version="1.1" id="Layer_1" xmlns="http://www.w3.org/2000/svg" xmlns:xlink="http://www.w3.org/1999/xlink" x="0px" y="0px"
	 width="800px" height="575px" viewBox="0 0 800 575" enable-background="new 0 0 800 575" xml:space="preserve">
<circle fill="#00FF00" stroke="#000000" stroke-width="2" cx="73.5" cy="506" r="25"/>
<circle fill="#FF0000" stroke="#000000" cx="385.299" cy="499.2" r="16.8"/>
<circle fill="#FF0000" stroke="#000000" cx="126.699" cy="369.2" r="16.8"/>
<circle fill="#FF0000" stroke="#000000" cx="216.699" cy="96.8" r="16.8"/>
<rect x="691.5" y="32" fill="#00FF00" stroke="#000000" width="70" height="70"/>
<polygon fill="#FFFFFF" stroke="#000000" points="173.128,548 164.5,519.046 164.5,478.098 173.128,449.145 338.3,449.145 
	346.928,478.098 346.928,519.046 338.3,548 "/>
<polygon fill="#FFFFFF" stroke="#000000" points="36.022,297.5 27.606,272.492 27.606,220.46 36.022,195.453 197.128,195.453 
	205.544,220.46 205.544,272.492 197.128,297.5 "/>
<circle fill="#FF0000" stroke="#000000" cx="681.299" cy="481.2" r="16.8"/>
<polygon fill="#FFFFFF" stroke="#000000" points="318.431,134.058 309.49,107.49 309.49,52.213 318.431,25.645 489.587,25.645 
	498.527,52.213 498.527,107.49 489.587,134.058 "/>
<g>
	<line fill="none" stroke="#D9AB00" x1="24.5" y1="24" x2="24.5" y2="549"/>
	<line fill="none" stroke="#D9AB00" x1="774.5" y1="24" x2="774.5" y2="549"/>
	<line fill="none" stroke="#D9AB00" x1="24.5" y1="549" x2="774.5" y2="549"/>
	<line fill="none" stroke="#D9AB00" x1="24.5" y1="24" x2="774.5" y2="24"/>
</g>
<polygon fill="#FFFFFF" stroke="#000000" points="606.75,455 598.5,428.813 598.5,374.33 606.75,348.145 764.678,348.145 
	772.928,374.33 772.928,428.813 764.678,455 "/>
<polygon fill="#FFFFFF" stroke="#000000" points="606.75,251 598.5,224.813 598.5,170.33 606.75,144.145 764.678,144.145 
	772.928,170.33 772.928,224.813 764.678,251 "/>
<polygon fill="#FFFFFF" stroke="#000000" points="318.431,342.059 309.49,315.49 309.49,260.213 318.431,233.645 489.587,233.645 
	498.527,260.213 498.527,315.49 489.587,342.059 "/>
</svg>
