<?xml version="1.0" encoding="utf-8"?>
<!-- Generator: Adobe Illustrator 14.0.0, SVG Export Plug-In . SVG Version: 6.00 Build 43363)  -->
<!DOCTYPE svg PUBLIC "-//W3C//DTD SVG 1.1//EN" "http://www.w3.org/Graphics/SVG/1.1/DTD/svg11.dtd">
<svg version="1.1" id="Layer_1" xmlns="http://www.w3.org/2000/svg" xmlns:xlink="http://www.w3.org/1999/xlink" x="0px" y="0px"
	 width="800px" height="575px" viewBox="0 0 800 575" enable-background="new 0 0 800 575" xml:space="preserve">
<circle fill="#00FF00" stroke="#000000" stroke-width="2" cx="399.5" cy="287.5" r="25"/>
<circle fill="#FF0000" stroke="#000000" cx="337.698" cy="287.5" r="16.8"/>
<g>
	<line fill="none" stroke="#D9AB00" x1="24.5" y1="25" x2="24.5" y2="550"/>
	<line fill="none" stroke="#D9AB00" x1="774.5" y1="25" x2="774.5" y2="550"/>
	<line fill="none" stroke="#D9AB00" x1="24.5" y1="550" x2="774.5" y2="550"/>
	<line fill="none" stroke="#D9AB00" x1="24.5" y1="25" x2="774.5" y2="25"/>
</g>
<rect x="26" y="252.5" fill="#00FFFF" stroke="#000000" width="70" height="70"/>
<rect x="702.5" y="252.5" fill="#00FF00" stroke="#000000" width="70" height="70"/>
<circle fill="#FF0000" stroke="#000000" cx="461.302" cy="287.5" r="16.8"/>
<polygon fill="#00FF00" stroke="#000000" stroke-width="2" points="483.807,83.956 504.516,33.954 294.485,33.954 315.195,83.956 
	"/>
<polygon fill="#00FF00" stroke="#000000" stroke-width="2" points="356.61,183.954 335.901,133.955 335.901,133.955 
	245.955,223.897 295.955,244.609 "/>
<polygon fill="#00FF00" stroke="#000000" stroke-width="2" points="442.389,391.045 463.103,441.044 553.044,351.102 
	503.045,330.389 "/>
<polygon fill="#00FF00" stroke="#000000" stroke-width="2" points="204.414,403.389 110.5,420.5 255.908,546.044 282.61,481.586 "/>
<polygon fill="#00FF00" stroke="#000000" stroke-width="2" points="597.489,167.608 671.833,164 546.712,26.956 546.711,26.956 
	520.389,90.51 "/>
<polygon fill="#00FF00" stroke="#000000" stroke-width="2" points="147.498,203.193 97.497,182.484 105.5,412 147.498,371.807 "/>
<polygon fill="#00FF00" stroke="#000000" stroke-width="2" points="650.496,371.807 700.498,392.516 678.502,175.332 
	650.496,203.194 "/>
<polygon fill="#00FF00" stroke="#000000" stroke-width="2" points="315.194,490.954 294.485,540.956 504.516,540.956 
	483.805,490.954 "/>
<circle fill="#00FFFF" stroke="#000000" cx="284.092" cy="287.5" r="16.8"/>
<circle fill="#00FFFF" stroke="#000000" cx="514.908" cy="287.5" r="16.801"/>
</svg>
